<svg width="47" height="30" viewBox="0 0 47 30" fill="none" xmlns="http://www.w3.org/2000/svg">
<path d="M45.2203 15.0366H1.33447M45.2203 15.0366C45.2203 18.7744 42.8279 22.1629 38.9478 24.6366M45.2203 15.0366C45.2203 11.2988 42.8279 7.91029 38.9478 5.43657M23.2774 28.7509C29.3368 28.7509 34.2489 22.6108 34.2489 15.0366C34.2489 7.46238 29.3368 1.32227 23.2774 1.32227M23.2774 28.7509C17.218 28.7509 12.3059 22.6108 12.3059 15.0366C12.3059 7.46238 17.218 1.32227 23.2774 1.32227M23.2774 28.7509V1.32227M23.2774 28.7509C29.4157 28.7509 34.9653 27.1757 38.9478 24.6366M23.2774 28.7509C17.1391 28.7509 11.5895 27.1757 7.60701 24.6366M1.33447 15.0366C1.33447 11.2988 3.72695 7.91029 7.60701 5.43657M1.33447 15.0366C1.33447 18.7744 3.72695 22.1629 7.60701 24.6366M23.2774 1.32227C29.4157 1.32227 34.9653 2.89755 38.9478 5.43657M23.2774 1.32227C17.1391 1.32227 11.5895 2.89755 7.60701 5.43657M38.9478 24.6366C34.9653 22.0976 29.4157 20.5223 23.2774 20.5223C17.1391 20.5223 11.5895 22.0976 7.60701 24.6366M38.9478 5.43657C34.9653 7.97559 29.4157 9.55087 23.2774 9.55087C17.1391 9.55087 11.5895 7.97559 7.60701 5.43657" stroke="#313131" stroke-width="2"/>
</svg>
