<svg width="1920" height="228" viewBox="0 0 1920 228" fill="none" xmlns="http://www.w3.org/2000/svg">
<path fill-rule="evenodd" clip-rule="evenodd" d="M1832.53 27.486C1830.1 32.9839 1828.89 38.9264 1828.89 45.3136C1828.89 51.8626 1830.1 57.9062 1832.53 63.4445C1834.95 68.9828 1838.24 73.7934 1842.4 77.8764C1846.56 81.9594 1851.41 85.153 1856.94 87.4573C1862.47 89.7615 1868.35 90.9136 1874.57 90.9136C1880.7 90.9136 1886.54 89.7615 1892.07 87.4573C1897.61 85.153 1902.43 81.9594 1906.55 77.8764C1910.67 73.7934 1913.94 68.9828 1916.37 63.4445C1918.79 57.9062 1920 51.8626 1920 45.3136C1920 38.9264 1918.79 32.9839 1916.37 27.486C1913.94 21.9881 1910.67 17.2179 1906.55 13.1753C1902.43 9.13275 1897.61 5.95938 1892.07 3.65511C1886.54 1.35085 1880.7 0.19873 1874.57 0.19873C1868.35 0.19873 1862.47 1.35085 1856.94 3.65511C1851.41 5.95938 1846.56 9.13275 1842.4 13.1753C1838.24 17.2179 1834.95 21.9881 1832.53 27.486ZM1837.1 45.3143C1837.1 50.8931 1838.05 56.0473 1839.94 60.7771C1841.84 65.5069 1844.47 69.61 1847.82 73.0866C1851.17 76.5633 1855.13 79.292 1859.69 81.2728C1864.26 83.2537 1869.2 84.2441 1874.53 84.2441C1879.78 84.2441 1884.67 83.2537 1889.19 81.2728C1893.72 79.292 1897.66 76.5633 1901.01 73.0866C1904.36 69.61 1906.98 65.5069 1908.88 60.7771C1910.78 56.0473 1911.73 50.8931 1911.73 45.3143C1911.73 39.8973 1910.78 34.8441 1908.88 30.1547C1906.98 25.4654 1904.36 21.4026 1901.01 17.9664C1897.66 14.5303 1893.72 11.8218 1889.19 9.84091C1884.67 7.86005 1879.78 6.86963 1874.53 6.86963C1869.2 6.86963 1864.26 7.86005 1859.69 9.84091C1855.13 11.8218 1851.17 14.5303 1847.82 17.9664C1844.47 21.4026 1841.84 25.4654 1839.94 30.1547C1838.05 34.8441 1837.1 39.8973 1837.1 45.3143ZM1877.33 18.9994H1856.85V71.9972H1865.09V49.1973H1873.81L1888.23 71.9972H1897.08L1881.93 48.5909C1885.89 48.1866 1889.2 46.8728 1891.87 44.6494C1894.53 42.426 1895.86 38.9292 1895.86 34.159C1895.86 29.0653 1894.35 25.2653 1891.32 22.759C1888.29 20.2526 1883.63 18.9994 1877.33 18.9994ZM1873.73 42.5344H1865.13V25.6769H1876.04C1877.41 25.6769 1878.8 25.778 1880.22 25.9801C1881.63 26.1822 1882.88 26.5663 1883.97 27.1322C1885.06 27.6982 1885.95 28.5067 1886.64 29.5578C1887.32 30.6088 1887.67 32.0237 1887.67 33.8025C1887.67 35.9046 1887.28 37.5418 1886.52 38.7142C1885.75 39.8865 1884.72 40.7556 1883.43 41.3216C1882.14 41.8876 1880.64 42.2312 1878.94 42.3525C1877.25 42.4737 1875.51 42.5344 1873.73 42.5344Z" fill="#FBFBF8"/>
<path d="M146.522 76.289H208.066C203.357 31.751 162.511 0 109.509 0C49.0598 0 0 41.1787 0 114.433C0 184.654 44.4605 228 109.947 228C168.643 228 210.694 192.456 210.694 131.772V100.996H111.261V143.909H151.998C151.45 163.198 137.652 175.551 110.385 175.551C78.8462 175.551 62.6389 152.578 62.6389 113.567C62.6389 75.097 80.1603 52.4487 110.823 52.4487C129.877 52.4487 142.799 61.1179 146.522 76.289Z" fill="#FBFBF8"/>
<path d="M449.925 114C449.925 39.8783 401.741 0 340.854 0C279.53 0 231.784 39.8783 231.784 114C231.784 187.688 279.53 228 340.854 228C401.741 228 449.925 188.122 449.925 114ZM387.286 114C387.286 153.878 371.079 175.551 340.854 175.551C310.63 175.551 294.423 153.878 294.423 114C294.423 74.1217 310.63 52.4487 340.854 52.4487C371.079 52.4487 387.286 74.1217 387.286 114Z" fill="#FBFBF8"/>
<path d="M688.937 114C688.937 39.8783 640.753 0 579.866 0C518.541 0 470.796 39.8783 470.796 114C470.796 187.688 518.541 228 579.866 228C640.753 228 688.937 188.122 688.937 114ZM626.298 114C626.298 153.878 610.09 175.551 579.866 175.551C549.642 175.551 533.434 153.878 533.434 114C533.434 74.1217 549.642 52.4487 579.866 52.4487C610.09 52.4487 626.298 74.1217 626.298 114Z" fill="#FBFBF8"/>
<path d="M796.976 224.966C865.309 224.966 908.675 183.354 908.675 114C908.675 44.6464 865.309 3.03422 796.1 3.03422H710.683V224.966H796.976ZM771.57 173.817V54.1825H793.034C828.076 54.1825 847.35 67.6198 847.35 114C847.35 160.38 828.076 173.817 794.786 173.817H771.57Z" fill="#FBFBF8"/>
<path d="M1086.34 89.8957H932.15V139.044H1086.34V89.8957Z" fill="#FBFBF8"/>
<path d="M1174.56 3.03422H1113.67V224.966H1174.56V3.03422Z" fill="#FBFBF8"/>
<path d="M1289.7 224.966C1358.04 224.966 1401.4 183.354 1401.4 114C1401.4 44.6464 1358.04 3.03422 1288.83 3.03422H1203.41V224.966H1289.7ZM1264.3 173.817V54.1825H1285.76C1320.8 54.1825 1340.08 67.6198 1340.08 114C1340.08 160.38 1320.8 173.817 1287.51 173.817H1264.3Z" fill="#FBFBF8"/>
<path d="M1422.46 224.966H1583.66V176.418H1483.35V138.274H1575.78V89.7262H1483.35V51.5818H1584.1V3.03422H1422.46V224.966Z" fill="#FBFBF8"/>
<path d="M1664.84 224.966L1677.76 182.487H1751.79L1764.71 224.966H1830.41L1756.39 3.03422H1673.16L1599.13 224.966H1664.84ZM1691.56 137.407L1713.9 64.1521H1715.65L1737.99 137.407H1691.56Z" fill="#FBFBF8"/>
</svg>
